<?xml version="1.0" standalone="no"?><!DOCTYPE svg PUBLIC "-//W3C//DTD SVG 1.1//EN" "http://www.w3.org/Graphics/SVG/1.1/DTD/svg11.dtd"><svg t="1723898766306" class="icon" viewBox="0 0 1024 1024" version="1.1" xmlns="http://www.w3.org/2000/svg" p-id="6886" xmlns:xlink="http://www.w3.org/1999/xlink" width="200" height="200"><path d="M511.706254 0c-282.58405 0-511.706254 229.122203-511.706254 511.706254s229.122203 511.706254 511.706254 511.706253 511.706254-229.122203 511.706253-511.706253-229.122203-511.706254-511.706253-511.706254z m328.408491 638.604705c0 105.161216-85.773953 190.935169-190.93517 190.935169h-91.061388c-10.574871 1.762478-21.737235 2.937464-32.899598 2.937464H414.182444c-105.748709 0-192.697648-86.361446-192.697648-192.697648V406.545037C221.484796 300.796328 307.846242 213.84739 414.182444 213.84739h111.036145c105.748709 0 192.697648 86.361446 192.697647 192.697647v46.411934h69.911647c28.787149 0 52.286862 23.499713 52.286862 52.286861v133.360873z" fill="#3863f6" p-id="6887"></path><path d="M555.180723 455.894435H391.857717c-17.624785 0-31.724613-14.099828-31.724613-31.724613 0-17.624785 14.099828-31.724613 31.724613-31.724613H555.180723c17.624785 0 31.724613 14.099828 31.724613 31.724613 0.587493 17.624785-14.099828 31.724613-31.724613 31.724613z m90.473895 213.259897H394.795181c-17.624785 0-32.312106-14.687321-32.312106-32.312106s14.687321-32.312106 32.312106-32.312106h250.859437c17.624785 0 32.312106 14.687321 32.312106 32.312106s-14.687321 32.312106-32.312106 32.312106z" fill="#3863f6" p-id="6888"></path></svg>