<svg width="100" height="100" viewBox="0 0 100 100" fill="none" xmlns="http://www.w3.org/2000/svg">
<path d="M91 85.4546C91 90.7264 77.537 95.0001 60.9296 95.0001C44.3221 95.0001 30.8591 90.7264 30.8591 85.4546C30.8591 80.1828 44.3221 75.9092 60.9296 75.9092C77.537 75.9092 91 80.1828 91 85.4546Z" fill="black" fill-opacity="0.16"/>
<ellipse cx="51.4789" cy="86.3636" rx="20.6197" ry="6.81818" fill="#001D0D"/>
<path d="M30 21.3635H72.9577L72.0986 85.4544H30.8592L30 21.3635Z" fill="url(#paint0_linear_1348_356)"/>
<ellipse cx="51.4789" cy="85.4545" rx="20.6197" ry="5.90909" fill="#01FE75"/>
<ellipse cx="51.4789" cy="22.7274" rx="21.4789" ry="6.81818" fill="#01937A"/>
<ellipse cx="51.4789" cy="21.3636" rx="21.4789" ry="6.36364" fill="white"/>
<ellipse cx="51.4789" cy="20.909" rx="5.15493" ry="1.36364" fill="#00A387"/>
<path d="M46.324 20.909V19.0908H56.6338V20.909H46.324Z" fill="#00A387"/>
<ellipse cx="51.4789" cy="19.0909" rx="5.15493" ry="1.36364" fill="url(#paint1_linear_1348_356)"/>
<path d="M50.762 51.799L45.3433 58.8357C44.7833 59.5629 45.4169 60.5973 46.3192 60.4288L49.8102 59.777C50.4435 59.6587 51.0217 60.1614 50.9927 60.8049L50.7824 65.4777C50.7368 66.4914 52.0556 66.9207 52.6154 66.0744L58.4525 57.2511C58.9221 56.5413 58.3469 55.6068 57.5018 55.7062L53.2307 56.2083C52.5692 56.2861 52.018 55.7076 52.1276 55.0506L52.5407 52.5736C52.7118 51.5473 51.3968 50.9746 50.762 51.799Z" fill="white"/>
<defs>
<linearGradient id="paint0_linear_1348_356" x1="51.4789" y1="21.3635" x2="51.4789" y2="85.909" gradientUnits="userSpaceOnUse">
<stop stop-color="#32CDBA"/>
<stop offset="1" stop-color="#00FF75"/>
</linearGradient>
<linearGradient id="paint1_linear_1348_356" x1="48.9014" y1="10.9091" x2="51.7614" y2="20.3692" gradientUnits="userSpaceOnUse">
<stop stop-color="#02FF76"/>
<stop offset="1" stop-color="white"/>
</linearGradient>
</defs>
</svg>
